<?xml version="1.0" encoding="UTF-8"?>
<!DOCTYPE svg PUBLIC "-//W3C//DTD SVG 1.1//EN" "http://www.w3.org/Graphics/SVG/1.1/DTD/svg11.dtd">
<!-- Creator: CorelDRAW -->
<svg xmlns="http://www.w3.org/2000/svg" xml:space="preserve" width="15.0813mm" height="12.1708mm" version="1.1" style="shape-rendering:geometricPrecision; text-rendering:geometricPrecision; image-rendering:optimizeQuality; fill-rule:evenodd; clip-rule:evenodd"
viewBox="0 0 356.7 287.86"
 xmlns:xlink="http://www.w3.org/1999/xlink"
 xmlns:xodm="http://www.corel.com/coreldraw/odm/2003">
 <defs>
  <style type="text/css">
   <![CDATA[
    .fil1 {fill:#257DE3;fill-rule:nonzero}
    .fil0 {fill:#6C96F9;fill-rule:nonzero}
   ]]>
  </style>
 </defs>
 <g id="Layer_x0020_1">
  <metadata id="CorelCorpID_0Corel-Layer"/>
  <polygon class="fil0" points="356.7,126.11 240.87,182.35 240.87,287.63 356.62,231.45 356.62,126.22 356.7,126.22 "/>
  <polygon class="fil1" points="240.74,182.47 124.66,126.11 124.45,126.28 124.45,231.39 240.61,287.75 240.74,287.86 240.88,287.8 240.94,287.86 240.81,287.75 240.88,287.63 240.88,182.35 "/>
  <polygon class="fil0" points="116.36,0.11 116.43,0 116.36,0.06 116.36,0 116.1,0.11 115.76,0.22 115.76,105.5 116.23,105.39 232.18,161.75 232.18,161.58 232.18,56.47 "/>
  <polygon class="fil1" points="-0,56.41 -0,161.63 0.07,161.75 115.75,105.5 115.75,0.22 "/>
  <polygon class="fil0" points="107.79,126.11 -0,178.41 -0,283.75 107.73,231.45 107.73,126.22 107.79,126.22 "/>
  <polygon class="fil1" points="356.62,4.11 248.9,56.41 248.9,161.63 248.97,161.75 356.62,109.45 "/>
 </g>
</svg>
