<svg width="48" height="48" viewBox="0 0 48 48" fill="none" xmlns="http://www.w3.org/2000/svg">
<g clip-path="url(#clip0_1889_2426)">
<path d="M24 43C34.4934 43 43 34.4934 43 24C43 13.5066 34.4934 5 24 5C13.5066 5 5 13.5066 5 24C5 34.4934 13.5066 43 24 43Z" fill="#039BE5"/>
<path d="M26.572 29.036H31.489L32.261 24.041H26.571V21.311C26.571 19.236 27.249 17.396 29.19 17.396H32.309V13.037C31.761 12.963 30.602 12.801 28.412 12.801C23.839 12.801 21.158 15.216 21.158 20.718V24.041H16.457V29.036H21.158V42.765C22.089 42.905 23.032 43 24 43C24.875 43 25.729 42.92 26.572 42.806V29.036Z" fill="white"/>
</g>
<defs>
<clipPath id="clip0_1889_2426">
<rect width="48" height="48" fill="white"/>
</clipPath>
</defs>
</svg>
